<?xml version="1.0" encoding="UTF-8"?>
<svg width="400" height="400" viewBox="0 0 400 400" fill="none" xmlns="http://www.w3.org/2000/svg">
    <!-- Globe Base -->
    <circle cx="200" cy="200" r="160" fill="#3498DB" opacity="0.2"/>
    <circle cx="200" cy="200" r="160" stroke="#3498DB" stroke-width="4" stroke-dasharray="8 8"/>
    
    <!-- Continents -->
    <path d="M160 140 Q180 120 200 130 T240 150 Q260 160 280 150 T300 170" 
          fill="#2ECC71" stroke="#27AE60" stroke-width="3"/>
    <path d="M120 180 Q140 160 160 170 T200 190 Q220 200 240 190 T270 210" 
          fill="#2ECC71" stroke="#27AE60" stroke-width="3"/>
    <path d="M140 220 Q160 200 180 210 T220 230 Q240 240 260 230 T290 250" 
          fill="#2ECC71" stroke="#27AE60" stroke-width="3"/>
    
    <!-- Growing Elements -->
    <g transform="translate(180,100) rotate(-20)">
        <path d="M0 0 Q10 -20 20 -10 T30 -30" stroke="#2ECC71" stroke-width="3" fill="none"/>
        <circle cx="30" cy="-30" r="5" fill="#F1C40F"/>
    </g>
    <g transform="translate(280,180) rotate(20)">
        <path d="M0 0 Q10 -20 20 -10 T30 -30" stroke="#2ECC71" stroke-width="3" fill="none"/>
        <circle cx="30" cy="-30" r="5" fill="#F1C40F"/>
    </g>
    
    <!-- Orbiting Leaves -->
    <g>
        <animateTransform attributeName="transform" type="rotate"
            from="0 200 200" to="360 200 200"
            dur="20s" repeatCount="indefinite"/>
        <path d="M360 200 Q370 190 380 200 T390 190" stroke="#2ECC71" stroke-width="2" fill="none"/>
        <circle cx="390" cy="190" r="3" fill="#27AE60"/>
    </g>
    <g>
        <animateTransform attributeName="transform" type="rotate"
            from="120 200 200" to="480 200 200"
            dur="20s" repeatCount="indefinite"/>
        <path d="M360 200 Q370 190 380 200 T390 190" stroke="#2ECC71" stroke-width="2" fill="none"/>
        <circle cx="390" cy="190" r="3" fill="#27AE60"/>
    </g>
    <g>
        <animateTransform attributeName="transform" type="rotate"
            from="240 200 200" to="600 200 200"
            dur="20s" repeatCount="indefinite"/>
        <path d="M360 200 Q370 190 380 200 T390 190" stroke="#2ECC71" stroke-width="2" fill="none"/>
        <circle cx="390" cy="190" r="3" fill="#27AE60"/>
    </g>

    <!-- Gradient Overlay -->
    <defs>
        <linearGradient id="forestDawn" x1="0%" y1="0%" x2="100%" y2="100%">
            <stop offset="0%" style="stop-color:#27AE60;stop-opacity:0.1"/>
            <stop offset="50%" style="stop-color:#2ECC71;stop-opacity:0.1"/>
            <stop offset="100%" style="stop-color:#F1C40F;stop-opacity:0.1"/>
        </linearGradient>
    </defs>
    <circle cx="200" cy="200" r="160" fill="url(#forestDawn)"/>
</svg>
