<?xml version="1.0" encoding="UTF-8"?>
<svg width="800px" height="600px" viewBox="0 0 800 600" version="1.1" xmlns="http://www.w3.org/2000/svg">
    <defs>
        <linearGradient id="earthGradient" x1="0%" y1="0%" x2="100%" y2="100%">
            <stop offset="0%" style="stop-color:#3E7B27;stop-opacity:1" />
            <stop offset="100%" style="stop-color:#85A947;stop-opacity:1" />
        </linearGradient>
        <linearGradient id="oceanGradient" x1="0%" y1="0%" x2="100%" y2="100%">
            <stop offset="0%" style="stop-color:#C4DFE6;stop-opacity:1" />
            <stop offset="100%" style="stop-color:#66A5AD;stop-opacity:1" />
        </linearGradient>
    </defs>
    
    <!-- Earth Base -->
    <circle cx="400" cy="300" r="250" fill="url(#oceanGradient)"/>
    
    <!-- Continents -->
    <path fill="url(#earthGradient)" d="M300,150 C420,140 500,200 550,300 C600,400 500,450 400,470 C300,490 200,450 150,350 C100,250 180,160 300,150 Z"/>
    <path fill="url(#earthGradient)" d="M650,250 C700,300 680,400 630,450 C580,500 500,480 470,430 C440,380 460,300 510,260 C560,220 600,200 650,250 Z"/>
    
    <!-- Atmosphere Glow -->
    <circle cx="400" cy="300" r="260" fill="none" stroke="#FBEAEB" stroke-width="2" opacity="0.3"/>
    <circle cx="400" cy="300" r="270" fill="none" stroke="#FBEAEB" stroke-width="1" opacity="0.2"/>
    
    <!-- Environmental Icons -->
    <g transform="translate(320,200) scale(0.1)">
        <path fill="#EFE3C2" d="M200,100 C300,50 400,100 450,200 C500,300 450,400 350,450 C250,500 150,450 100,350 C50,250 100,150 200,100 Z"/>
    </g>
    <g transform="translate(500,350) scale(0.1)">
        <path fill="#EFE3C2" d="M200,100 C300,50 400,100 450,200 C500,300 450,400 350,450 C250,500 150,450 100,350 C50,250 100,150 200,100 Z"/>
    </g>
</svg>
