<?xml version="1.0" encoding="UTF-8"?>
<svg width="24px" height="24px" viewBox="0 0 24 24" version="1.1" xmlns="http://www.w3.org/2000/svg">
    <path fill="#85A947" d="M17.5,12c0,0.9-0.2,1.7-0.5,2.5c-0.4,1-1,1.8-1.8,2.5c-2.3,2-5.3,2.4-8,1.1c0.9-0.7,1.7-1.5,2.4-2.4
        c0.4-0.5,0.7-1,1-1.6c0.3-0.6,0.5-1.3,0.6-2c0.1-0.7,0.1-1.4,0-2.1C11,9.3,10.8,8.6,10.5,8c-0.3-0.6-0.6-1.2-1-1.7
        C8.8,5.4,8,4.6,7.1,3.9c2.7-1.3,5.7-0.9,8,1.1c0.8,0.7,1.4,1.5,1.8,2.5C17.3,8.3,17.5,9.1,17.5,10V12z"/>
</svg>
