<?xml version="1.0" encoding="UTF-8"?>
<svg width="100" height="100" viewBox="0 0 100 100" fill="none" xmlns="http://www.w3.org/2000/svg">
    <!-- Hands -->
    <path d="M20 60 Q30 50 40 60 T60 50" stroke="#8B4513" stroke-width="3" fill="none"/>
    <path d="M40 70 Q50 60 60 70 T80 60" stroke="#8B4513" stroke-width="3" fill="none"/>
    
    <!-- Plant -->
    <rect x="45" y="40" width="10" height="30" fill="#50C878"/>
    <path d="M50 40 Q40 30 50 20 T50 0" stroke="#008080" stroke-width="3" fill="none"/>
    <path d="M50 35 Q60 25 50 15 T50 -5" stroke="#008080" stroke-width="3" fill="none"/>
    
    <!-- Leaves -->
    <path d="M50 20 Q60 15 55 10 T60 0" stroke="#50C878" stroke-width="2" fill="#008080"/>
    <path d="M50 25 Q40 20 35 15 T30 5" stroke="#50C878" stroke-width="2" fill="#008080"/>
    
    <!-- Gradient Overlay -->
    <defs>
        <linearGradient id="natureGlow" x1="0%" y1="0%" x2="100%" y2="100%">
            <stop offset="0%" style="stop-color:#87CEEB;stop-opacity:0.1"/>
            <stop offset="50%" style="stop-color:#008080;stop-opacity:0.1"/>
            <stop offset="100%" style="stop-color:#50C878;stop-opacity:0.1"/>
        </linearGradient>
    </defs>
    <rect width="100" height="100" fill="url(#natureGlow)"/>
</svg>
