<?xml version="1.0" encoding="UTF-8"?>
<svg width="100" height="100" viewBox="0 0 100 100" fill="none" xmlns="http://www.w3.org/2000/svg">
    <!-- Circle of People -->
    <circle cx="50" cy="50" r="40" stroke="#4CAF50" stroke-width="2" stroke-dasharray="4 4" fill="none"/>
    
    <!-- People -->
    <g transform="translate(50,50)">
        <!-- Person 1 -->
        <g transform="rotate(0) translate(0,-40)">
            <circle cx="0" cy="0" r="6" fill="#4CAF50"/>
            <path d="M-3 8 L3 8 M0 6 L0 12" stroke="#4CAF50" stroke-width="2"/>
        </g>
        <!-- Person 2 -->
        <g transform="rotate(72) translate(0,-40)">
            <circle cx="0" cy="0" r="6" fill="#4CAF50"/>
            <path d="M-3 8 L3 8 M0 6 L0 12" stroke="#4CAF50" stroke-width="2"/>
        </g>
        <!-- Person 3 -->
        <g transform="rotate(144) translate(0,-40)">
            <circle cx="0" cy="0" r="6" fill="#4CAF50"/>
            <path d="M-3 8 L3 8 M0 6 L0 12" stroke="#4CAF50" stroke-width="2"/>
        </g>
        <!-- Person 4 -->
        <g transform="rotate(216) translate(0,-40)">
            <circle cx="0" cy="0" r="6" fill="#4CAF50"/>
            <path d="M-3 8 L3 8 M0 6 L0 12" stroke="#4CAF50" stroke-width="2"/>
        </g>
        <!-- Person 5 -->
        <g transform="rotate(288) translate(0,-40)">
            <circle cx="0" cy="0" r="6" fill="#4CAF50"/>
            <path d="M-3 8 L3 8 M0 6 L0 12" stroke="#4CAF50" stroke-width="2"/>
        </g>
    </g>
    
    <!-- Center Leaf -->
    <path d="M50 50 Q60 40 50 30 T50 20" stroke="#81C784" stroke-width="2" fill="#81C784"/>
    <path d="M50 50 Q40 40 50 30 T50 20" stroke="#81C784" stroke-width="2" fill="#81C784"/>
</svg>
