<?xml version="1.0" encoding="UTF-8"?>
<svg width="100" height="100" viewBox="0 0 100 100" fill="none" xmlns="http://www.w3.org/2000/svg">
    <!-- Trophy Base -->
    <path d="M30 70 H70 L65 80 H35 Z" fill="#FFD700"/>
    
    <!-- Trophy Body -->
    <path d="M35 30 V70 H65 V30" fill="#FFD700"/>
    <path d="M35 30 Q20 30 20 45 T35 60" fill="#FFD700"/>
    <path d="M65 30 Q80 30 80 45 T65 60" fill="#FFD700"/>
    
    <!-- Leaves -->
    <g transform="translate(50,40)">
        <path d="M0 0 Q10 -10 0 -20 T0 -30" stroke="#50C878" stroke-width="2" fill="#008080"/>
        <path d="M0 0 Q-10 -10 0 -20 T0 -30" stroke="#50C878" stroke-width="2" fill="#008080"/>
    </g>
    
    <!-- Star -->
    <path d="M50 15 L53 24 L62 24 L55 30 L58 39 L50 33 L42 39 L45 30 L38 24 L47 24 Z" 
          fill="#FFD700" stroke="#E2725B" stroke-width="1"/>
    
    <!-- Ribbon -->
    <path d="M45 80 L40 90 L50 85 L60 90 L55 80" fill="#E2725B"/>
    
    <!-- Gradient Overlay -->
    <defs>
        <linearGradient id="trophyGlow" x1="0%" y1="0%" x2="100%" y2="100%">
            <stop offset="0%" style="stop-color:#FFD700;stop-opacity:0.1"/>
            <stop offset="50%" style="stop-color:#E2725B;stop-opacity:0.1"/>
            <stop offset="100%" style="stop-color:#F4A460;stop-opacity:0.1"/>
        </linearGradient>
    </defs>
    <rect width="100" height="100" fill="url(#trophyGlow)"/>
</svg>
